<?xml version="1.0" standalone="no"?>
<!DOCTYPE svg PUBLIC "-//W3C//DTD SVG 20010904//EN"
 "http://www.w3.org/TR/2001/REC-SVG-20010904/DTD/svg10.dtd">
<svg version="1.0" xmlns="http://www.w3.org/2000/svg"
 width="260.000000pt" height="260.000000pt" viewBox="0 0 260.000000 260.000000"
 preserveAspectRatio="xMidYMid meet">
<metadata>
Created by potrace 1.14, written by Peter Selinger 2001-2017
</metadata>
<g transform="translate(0.000000,260.000000) scale(0.100000,-0.100000)"
fill="#000000" stroke="none">
<path d="M1072 2536 c-254 -48 -474 -165 -658 -350 -162 -161 -271 -351 -332
-574 -24 -91 -26 -111 -26 -312 0 -201 2 -221 26 -312 121 -446 460 -785 906
-906 91 -24 111 -26 312 -26 201 0 221 2 312 26 223 61 413 170 574 332 162
161 271 351 332 574 24 91 26 111 26 312 0 201 -2 221 -26 312 -121 447 -463
788 -906 905 -84 22 -122 26 -282 29 -128 2 -207 -1 -258 -10z"/>
</g>
</svg>
